<svg xmlns="http://www.w3.org/2000/svg" xmlns:xlink="http://www.w3.org/1999/xlink" width="236" height="51" viewBox="0 0 236 51">
  <defs>
    <style>
      .cls-1 {
        fill: none;
      }

      .cls-2 {
        clip-path: url(#clip-path);
      }

      .cls-3 {
        fill: #161615;
      }

      .cls-4 {
        fill: #006e90;
      }

      .cls-5 {
        fill: #fff;
      }
    </style>
    <clipPath id="clip-path">
      <rect id="사각형_72" data-name="사각형 72" class="cls-1" width="236" height="51" transform="translate(0 0)"/>
    </clipPath>
  </defs>
  <g id="그룹_54" data-name="그룹 54" class="cls-2" transform="translate(0 0)">
    <path id="패스_103" data-name="패스 103" class="cls-3" d="M70.781,13.305H65.688v3.982H64.481V13.305h-5.1v-.972h11.4ZM69.568,6.274v.959H65.853a3.08,3.08,0,0,0,1.478,2.073,7.331,7.331,0,0,0,2.786.961,6.081,6.081,0,0,0-.463.487,5.024,5.024,0,0,0-.358.461,8.581,8.581,0,0,1-2.561-1.022,4.139,4.139,0,0,1-1.644-1.5,3.752,3.752,0,0,1-1.529,1.5,7.477,7.477,0,0,1-2.577.985c-.137-.175-.277-.345-.419-.507a5.175,5.175,0,0,0-.484-.463,6.809,6.809,0,0,0,2.807-.888,3.021,3.021,0,0,0,1.455-2.085h-3.74V6.274Z"/>
    <path id="패스_104" data-name="패스 104" class="cls-3" d="M82.877,12.136H77.784v2.443H76.578V12.136h-5.1v-.959h11.4Zm-8.453,1.745c.036.058,0,.158-.085.295a.6.6,0,0,1-.062.087.255.255,0,0,0-.016.076v1.7h7.224v.974H73.057V13.74h.756c.356,0,.56.049.611.142m6.814-3.974h-8.07V6.087h8.07Zm-6.864-.968h5.659V7.046H74.374Z"/>
    <path id="패스_105" data-name="패스 105" class="cls-3" d="M88,6.174c.043.042.029.145-.037.309a1.451,1.451,0,0,0-.1.263,1.036,1.036,0,0,0-.039.36,4.879,4.879,0,0,0,.882,2.5,4.627,4.627,0,0,0,2.2,1.666,3.365,3.365,0,0,0-.385.353c-.075.083-.179.2-.312.358l-.148.189a5.6,5.6,0,0,1-1.789-1.392A5.107,5.107,0,0,1,87.252,9.1,5.433,5.433,0,0,1,86,11.1a8.338,8.338,0,0,1-1.869,1.573,4.88,4.88,0,0,0-.456-.5,3.553,3.553,0,0,0-.5-.411A4.655,4.655,0,0,0,85.6,9.833a5.848,5.848,0,0,0,.988-3.746H87.4a1.137,1.137,0,0,1,.6.087M93.62,17.288H92.41V14.227H85.472v-.974H93.62Zm.107-11.352c.033.053.016.138-.05.264-.021.049-.041.083-.046.1a.357.357,0,0,0-.011.095v5.978H92.41V5.809h.847q.408,0,.471.127"/>
    <path id="패스_106" data-name="패스 106" class="cls-3" d="M99.675,10.832c.029.051.008.138-.058.271a.423.423,0,0,0-.049.1.5.5,0,0,0-.012.111v3.664h1.893V10.719h.832c.295,0,.468.034.518.113.028.051,0,.138-.074.271-.025.042-.045.074-.062.1a.577.577,0,0,0-.013.111v3.664h4.412v.957h-11.4v-.957h2.682V10.719h.8c.3,0,.476.034.529.113m6.073-4q0,1.58-.191,3.584c-.1,1.186-.219,2.209-.361,3.073-.278-.023-.494-.045-.63-.062-.228-.016-.413-.023-.575-.023.123-.692.242-1.631.364-2.827.125-1.222.185-2.143.185-2.776H96.748v-.97Z"/>
    <path id="패스_107" data-name="패스 107" class="cls-3" d="M110.741,11.626h-2.979V10.67h11.4v.955h-2.982v1.653h1.193v4.009h-1.206V14.25H109.15v-.972h1.591ZM116.71,6.41A1.677,1.677,0,0,1,117.8,7.893a1.694,1.694,0,0,1-1.093,1.452,8.585,8.585,0,0,1-6.5,0,1.693,1.693,0,0,1-1.1-1.452,1.676,1.676,0,0,1,1.1-1.482,8.92,8.92,0,0,1,6.5,0m-5.618.656c-.522.2-.775.474-.775.826,0,.323.253.585.775.783a6.563,6.563,0,0,0,2.369.338,6.5,6.5,0,0,0,2.353-.338c.518-.2.785-.46.785-.783,0-.352-.267-.625-.785-.826a9.6,9.6,0,0,0-4.722,0m3.877,4.559h-3.02v1.653h3.02Z"/>
    <path id="패스_108" data-name="패스 108" class="cls-3" d="M123.98,13.818q1.578-.117,3.952-.338L128,14.554l-3.117.22c-1.01.075-1.737.131-2.176.162-.732.051-1.267.086-1.615.1a1.073,1.073,0,0,0-.411.076,1.534,1.534,0,0,0-.289.133c-.163.084-.27.113-.324.077-.073-.055-.119-.24-.148-.549l-.081-.759c1.13-.007,2.514-.074,4.138-.2m-2.6-2.828a2.537,2.537,0,0,1-.72-1.878,2.678,2.678,0,0,1,.72-1.944,3.643,3.643,0,0,1,4.635,0,2.682,2.682,0,0,1,.737,1.944,2.536,2.536,0,0,1-.7,1.878,3.773,3.773,0,0,1-4.673,0m.92-3.162a1.827,1.827,0,0,0-.435,1.285,1.725,1.725,0,0,0,.435,1.231,1.864,1.864,0,0,0,1.416.514,1.808,1.808,0,0,0,1.392-.514,1.725,1.725,0,0,0,.436-1.231,1.827,1.827,0,0,0-.436-1.285,1.766,1.766,0,0,0-1.392-.52,1.82,1.82,0,0,0-1.416.52m7.741-1.9c.018.053-.012.131-.087.234-.025.038-.037.058-.045.067a.246.246,0,0,0-.016.058v11h-1.205V5.809h.932c.247,0,.39.038.422.114"/>
    <path id="패스_109" data-name="패스 109" class="cls-3" d="M139.948,6.225c.042.036.029.136-.039.294a3.566,3.566,0,0,0-.123.34,1.414,1.414,0,0,0-.05.461,4.25,4.25,0,0,0,.982,2.414,4.608,4.608,0,0,0,2.187,1.717,4.537,4.537,0,0,0-.51.451c-.115.107-.272.271-.473.483a7.58,7.58,0,0,1-1.73-1.477,5.9,5.9,0,0,1-1.052-1.784,6.238,6.238,0,0,1-1.267,2.091,8.237,8.237,0,0,1-1.828,1.495c-.173-.209-.317-.376-.435-.5a3.692,3.692,0,0,0-.458-.41,4.741,4.741,0,0,0,2.534-2.116,5.88,5.88,0,0,0,.871-3.533h.794a1.263,1.263,0,0,1,.6.075m-1.206,7.567c.026.049,0,.14-.075.276a.519.519,0,0,1-.042.084.475.475,0,0,0-.008.075v1.8H145.9v.963h-8.5V13.666h.833c.288,0,.457.042.507.127m7.013-7.856c.025.06,0,.167-.074.325a.7.7,0,0,0-.063.149.511.511,0,0,0-.026.16v3.8h1.678v.968h-1.678v3.411h-1.208V5.809h.853c.3,0,.464.042.517.127"/>
    <path id="패스_110" data-name="패스 110" class="cls-3" d="M152.093,6.112c.038.038.029.136-.029.282a1.9,1.9,0,0,0-.1.265,1.056,1.056,0,0,0-.025.333,3.877,3.877,0,0,0,.984,2.252,4.871,4.871,0,0,0,1.988,1.45,2.459,2.459,0,0,0-.509.434,2.369,2.369,0,0,0-.346.46,6.86,6.86,0,0,1-1.778-1.4,4.4,4.4,0,0,1-.962-1.5,5.142,5.142,0,0,1-1.242,1.768,7.826,7.826,0,0,1-1.989,1.431,2.692,2.692,0,0,0-.371-.4,5.181,5.181,0,0,0-.461-.358,5.434,5.434,0,0,0,2.5-1.967,4.747,4.747,0,0,0,.934-3.137h.806a1.186,1.186,0,0,1,.6.089m5.589,6.36v2.786h-6.835v.9h7.28v.968h-8.495V14.289h6.849v-.859h-6.865v-.957Zm.111-6.536a.375.375,0,0,1-.045.289c-.023.049-.045.081-.053.094a.411.411,0,0,0-.013.1v5.542h-1.2V5.809h.856c.254,0,.41.042.455.127"/>
    <rect id="사각형_69" data-name="사각형 69" class="cls-3" width="73.412" height="0.556" transform="translate(161.8 10.937)"/>
    <path id="패스_111" data-name="패스 111" class="cls-3" d="M114.359,41.631h18.256V39.57H115.4V34.188h-4.144l0,4.354a3.1,3.1,0,0,0,3.1,3.088"/>
    <path id="패스_112" data-name="패스 112" class="cls-3" d="M120.11,24.456l-.021-1.933h5.5V20.474H110.509v2.049h5.481v1.933a6.121,6.121,0,0,1-6.12,6.121v2.071a11.32,11.32,0,0,0,8.152-3.219,11.293,11.293,0,0,0,8.2,3.219V30.577a6.119,6.119,0,0,1-6.114-6.121"/>
    <path id="패스_113" data-name="패스 113" class="cls-3" d="M106.859,19.951h-4.106v16.18h3.226a.883.883,0,0,0,.88-.879Z"/>
    <path id="패스_114" data-name="패스 114" class="cls-3" d="M209.523,36.292H187.409v2.051h18.039v3.282l3.2,0a.888.888,0,0,0,.883-.885Z"/>
    <path id="패스_115" data-name="패스 115" class="cls-3" d="M88.6,41.631h18.256V39.57H89.638V34.188H85.5v4.354a3.092,3.092,0,0,0,3.1,3.088"/>
    <path id="패스_116" data-name="패스 116" class="cls-3" d="M157.827,41.649,157.81,39.6H140.627V34.9h-4.15l.016,3.644a3.1,3.1,0,0,0,3.091,3.1Z"/>
    <path id="패스_117" data-name="패스 117" class="cls-3" d="M183.87,19.951h-4.1V27.5h-2.327V19.951h-4.1V37.684h-7.413V22.507h5.351V20.474h-9.521l.01,16.156a3.1,3.1,0,0,0,3.1,3.1h8.479V41.6l3.223,0a.885.885,0,0,0,.879-.885V29.553h2.323V41.6l3.218,0a.886.886,0,0,0,.883-.885Z"/>
    <path id="패스_118" data-name="패스 118" class="cls-3" d="M211.857,25.391h-2.315V19.95h-4.1V35.095h3.222a.88.88,0,0,0,.88-.879V27.44h2.315Z"/>
    <path id="패스_119" data-name="패스 119" class="cls-3" d="M158.742,31.117H135.586v2.049h9.523v4.659h3.212a.879.879,0,0,0,.877-.879l-.013-3.78h9.557Z"/>
    <path id="패스_120" data-name="패스 120" class="cls-3" d="M132.632,19.951h-4.1v5.441h-4.89V27.44h4.89v8.691h3.222a.881.881,0,0,0,.877-.879Z"/>
    <path id="패스_121" data-name="패스 121" class="cls-3" d="M78.922,34.363l1.471,0a.885.885,0,0,0,.883-.879l-.009-13.535h-4.1v2.463H72.021A9.313,9.313,0,0,0,65.514,20c-4.5,0-8.145,2.7-8.145,6.027s3.645,6.025,8.145,6.025a9.332,9.332,0,0,0,6.442-2.35h5.21v3.873a20.291,20.291,0,0,0-6.71-1.059c-5.981,0-10.827,2.2-10.827,4.9s4.846,4.9,10.827,4.9,10.823-2.195,10.823-4.9c0-1.153-.881-2.211-2.356-3.052M65.514,30.034a4.009,4.009,0,1,1,4-4.009,4.005,4.005,0,0,1-4,4.009m4.941,10.3c-3.667,0-6.64-1.3-6.64-2.917s2.973-2.917,6.64-2.917,6.632,1.308,6.632,2.917-2.966,2.917-6.632,2.917m6.71-12.683H73.349a4.434,4.434,0,0,0,.023-3.186h3.793Z"/>
    <rect id="사각형_70" data-name="사각형 70" class="cls-3" width="11.125" height="2.049" transform="translate(189.853 19.963)"/>
    <rect id="사각형_71" data-name="사각형 71" class="cls-3" width="16.675" height="2.052" transform="translate(186.872 23.175)"/>
    <path id="패스_122" data-name="패스 122" class="cls-3" d="M195.361,26.123c-4.647,0-8.412,1.887-8.412,4.214s3.764,4.211,8.412,4.211,8.416-1.885,8.416-4.211-3.768-4.214-8.416-4.214m0,6.388c-2.364,0-4.278-.974-4.278-2.174S193,28.16,195.361,28.16s4.277.976,4.277,2.178-1.914,2.174-4.277,2.174"/>
    <path id="패스_123" data-name="패스 123" class="cls-3" d="M94.349,24.456l-.022-1.933h5.506V20.474H84.745v2.049h5.48v1.933a6.12,6.12,0,0,1-6.114,6.121v2.071a11.34,11.34,0,0,0,8.153-3.219,11.28,11.28,0,0,0,8.2,3.219V30.577a6.121,6.121,0,0,1-6.117-6.121"/>
    <path id="패스_124" data-name="패스 124" class="cls-3" d="M156.916,29.535a.879.879,0,0,0,.895-.861v-8.2l-21.37-.011,0,5.975a3.115,3.115,0,0,0,3.1,3.114l17.372-.011m-16.334-7h13.127V27.5H140.582Z"/>
    <path id="패스_125" data-name="패스 125" class="cls-3" d="M227.987,38.31V27.6h-4.064V38.31h-3.534V27.6h-4.066V38.31h-3.479v2.049H236V38.31Zm3.223-2.716H234.4a.885.885,0,0,0,.882-.881V20.481H213.5v2.055H231.21Z"/>
    <path id="패스_126" data-name="패스 126" class="cls-4" d="M25.463,0A25.5,25.5,0,1,0,50.933,25.5,25.481,25.481,0,0,0,25.463,0"/>
    <path id="패스_127" data-name="패스 127" class="cls-5" d="M47.411,22.64a.452.452,0,0,0,.213.207.533.533,0,0,0,.325.038.5.5,0,0,0,.326-.167.518.518,0,0,0,.117-.344,5.641,5.641,0,0,0-.088-.62l-.1-.659-1.06.162.1.627a3.442,3.442,0,0,0,.166.755M23.484,3.871a.511.511,0,0,0,.39-.229.854.854,0,0,0,.12-.576.979.979,0,0,0-.245-.614.556.556,0,0,0-.451-.187.5.5,0,0,0-.368.22.934.934,0,0,0-.1.614.97.97,0,0,0,.22.61.551.551,0,0,0,.435.162M25.472.646A24.823,24.823,0,1,0,50.262,25.469,24.808,24.808,0,0,0,25.472.646M49.383,26.47a1.8,1.8,0,0,1-.406,1.181,1.223,1.223,0,0,1-.95.381v-.854a.731.731,0,0,0,.478-.216.83.83,0,0,0,.17-.534,1.01,1.01,0,0,0-.13-.594.313.313,0,0,0-.255-.145.341.341,0,0,0-.266.116,2.3,2.3,0,0,0-.314.776,4.237,4.237,0,0,1-.344.908,1.185,1.185,0,0,1-.452.449,1.313,1.313,0,0,1-.68.142,1.235,1.235,0,0,1-.67-.233,1.251,1.251,0,0,1-.451-.594A2.385,2.385,0,0,1,45,26.324a1.8,1.8,0,0,1,.426-1.215,1.572,1.572,0,0,1,1.1-.468l.045.833a1.023,1.023,0,0,0-.626.277.961.961,0,0,0-.224.614.977.977,0,0,0,.146.632.516.516,0,0,0,.4.223.353.353,0,0,0,.258-.074.7.7,0,0,0,.2-.3c.036-.1.111-.327.213-.676a2.3,2.3,0,0,1,.464-.95,1.105,1.105,0,0,1,.864-.353,1.041,1.041,0,0,1,.6.213,1.085,1.085,0,0,1,.406.543,2.155,2.155,0,0,1,.117.846m-.322-4.546a3.218,3.218,0,0,1,.041.992,1.012,1.012,0,0,1-.327.547,1.21,1.21,0,0,1-.63.287,1.144,1.144,0,0,1-.82-.155,1.358,1.358,0,0,1-.52-.772,1.944,1.944,0,0,1-.28.51,4.6,4.6,0,0,1-.6.585l-.734.639-.156-1.012.814-.752a5.374,5.374,0,0,0,.544-.543.661.661,0,0,0,.137-.281,1.624,1.624,0,0,0-.016-.432l-.03-.173-1.75.273-.132-.847,4.188-.65Zm-.6-3.012-.676.245L47.013,17l-.882.32.719,2-.67.245-.721-2-1.085.394.8,2.227-.67.24-1.093-3.032,3.98-1.439Zm-2.7-6.007-2.207,2.472,3.24-.631.447.788-4.436.756-.448-.8,2.95-3.4Zm-.745-1.1L41.6,14.3l-.5-.694,3.428-2.489ZM42.144,8.392,41.293,11.6l2.05-1.949.542.576-3.064,2.921-.594-.623.825-3.144-2,1.9-.546-.576,3.069-2.921ZM36.106,7.84a5.181,5.181,0,0,1,.555-.925l1.316-1.833.7.492L37.34,7.442a3.823,3.823,0,0,0-.388.6.709.709,0,0,0-.039.489.993.993,0,0,0,.369.461.886.886,0,0,0,.538.2.572.572,0,0,0,.393-.169,4.449,4.449,0,0,0,.448-.565l1.363-1.9.7.5-1.3,1.809a5.252,5.252,0,0,1-.685.837,1.143,1.143,0,0,1-.511.282,1.314,1.314,0,0,1-.6-.007A2.137,2.137,0,0,1,36.88,9.6a2.335,2.335,0,0,1-.662-.65,1.3,1.3,0,0,1-.192-.585,1.147,1.147,0,0,1,.08-.523M30.323,2.8l.207-.754,2.772.779-.166.588a4.663,4.663,0,0,0-.969.772,5.918,5.918,0,0,0-.914,1.19,5.19,5.19,0,0,0-.539,1.22l-.784-.22A5.456,5.456,0,0,1,30.8,4.688a6.222,6.222,0,0,1,1.366-1.379ZM26.256,1.509l2.857.271-.052.6a4.439,4.439,0,0,0-.813.937,5.854,5.854,0,0,0-.688,1.341,5.084,5.084,0,0,0-.31,1.3l-.813-.08a5.748,5.748,0,0,1,.546-1.813,6.244,6.244,0,0,1,1.1-1.6L26.176,2.29Zm-3.949.552a1.438,1.438,0,0,1,2.11-.075,2.724,2.724,0,0,1,.571,1.659,2.722,2.722,0,0,1-.29,1.773,1.464,1.464,0,0,1-1.114.63,1.231,1.231,0,0,1-.85-.2,1.287,1.287,0,0,1-.476-.779l.8-.162a.573.573,0,0,0,.187.352.444.444,0,0,0,.339.091.544.544,0,0,0,.423-.278,2.121,2.121,0,0,0,.141-1.012,1,1,0,0,1-.758.436,1.185,1.185,0,0,1-.926-.32,1.459,1.459,0,0,1-.462-1,1.484,1.484,0,0,1,.3-1.112M18.83,3.128a1.623,1.623,0,0,0,.333-.818l.651-.181,1.163,4.259-.817.22-.834-3.061a2.87,2.87,0,0,1-.876.9l-.2-.734a2.379,2.379,0,0,0,.583-.585M10.269,7.051l3.1,1.2L11.65,6l.63-.487,2.573,3.37-.682.521L11.137,8.247l1.681,2.2-.634.485L9.611,7.558ZM8.377,8.815l3.082,2.9-.59.627L7.788,9.436ZM6.666,10.732l2.187,1.552a2.83,2.83,0,0,1,.606.543,1.165,1.165,0,0,1,.223.714,1.55,1.55,0,0,1-.314.834,1.26,1.26,0,0,1-.845.579,1.41,1.41,0,0,1-1.037-.314l.388-.714a1.169,1.169,0,0,0,.481.212.465.465,0,0,0,.432-.212.458.458,0,0,0,.1-.427,1.268,1.268,0,0,0-.481-.485L6.173,11.427ZM3.538,15.88a2.049,2.049,0,0,1,.8-1A1.48,1.48,0,0,1,5.4,14.723l-.193.841a.9.9,0,0,0-.585.112,1,1,0,0,0-.406.5,1.137,1.137,0,0,0-.032.957,1.507,1.507,0,0,0,.836.723A1.654,1.654,0,0,0,6.19,18a1.136,1.136,0,0,0,.7-.662A1.51,1.51,0,0,0,7,16.8a1.835,1.835,0,0,0-.051-.527l-.494-.216-.388.9-.657-.283.733-1.7,1.549.672a2.464,2.464,0,0,1,.112.9,2.874,2.874,0,0,1-.228,1.024,2.31,2.31,0,0,1-.717.954,1.794,1.794,0,0,1-1.027.365,2.543,2.543,0,0,1-1.133-.22,2.4,2.4,0,0,1-.971-.721A1.848,1.848,0,0,1,3.336,16.9a2.128,2.128,0,0,1,.2-1.015M1.8,22.275l3.086-1.228L2.1,20.566l.141-.785,4.171.723-.148.85L3.249,22.561l2.72.474-.135.783L1.658,23.1Zm-.116,5.462,2.292-.133a4.872,4.872,0,0,0,.7-.071.679.679,0,0,0,.4-.285.923.923,0,0,0,.128-.572.913.913,0,0,0-.181-.543.612.612,0,0,0-.382-.2,4.726,4.726,0,0,0-.722,0L1.59,26.07l-.044-.854,2.22-.129a5.621,5.621,0,0,1,1.077.009,1.166,1.166,0,0,1,.543.223,1.34,1.34,0,0,1,.377.481,2.4,2.4,0,0,1,.174.808,2.441,2.441,0,0,1-.092.925,1.264,1.264,0,0,1-.334.516,1.113,1.113,0,0,1-.452.269,5.5,5.5,0,0,1-1.071.145l-2.252.129Zm.364,2.672.689-.195.616,2.2.9-.253-.568-2.049.684-.19.576,2.049,1.109-.311-.639-2.281.688-.2.866,3.108L2.9,33.438ZM6.732,35.9,5.3,38.424l-.468-.888,1.01-1.668L3.9,35.79l-.459-.872,2.9.229,1.57-.834.4.754Zm2.026,4.505a.734.734,0,1,1,.733-.734.735.735,0,0,1-.733.734m19.389,9.155V46.484H27.081v3.077H26V46.484H24.917v3.077H23.845V46.484H22.772v3.077H21.7l.008-2.887a1.061,1.061,0,0,1,1.064-1.063l2.142,0v-.9H26v.9l2.146,0a1.064,1.064,0,0,1,1.065,1.063l0,2.887Zm-2.666-5.355A18.726,18.726,0,0,1,7.031,28.639l-.013-.071a3.128,3.128,0,0,0,2.469.976c1.863,4.429,5.986,2.925,7.071,2.053,1.362-1.044,1.227-1.457.246-.731-4.185,2.689-6.338-1.273-6.27-2.712C5.9,26.374,7.2,21.01,7.829,19.222a18.712,18.712,0,0,1,33.145-4.276,18.719,18.719,0,0,0-4.3,0,.878.878,0,0,0-.659.481c-.8,1.962.318,4.716.435,5.513a9.927,9.927,0,0,1-.232,6.173c-.994,2.525-3.305,3.479-5.8,3.675a8.873,8.873,0,0,1-3.36,2.936c-.128.042-.248.084-.339-.069-.062-.171.245-.236.534-.569A12.168,12.168,0,0,0,29.729,28.4a11.336,11.336,0,0,0,.168-5.96c-.051-.242-.1-.356-.252-.378-.258-.012-.445.258-.6,1.5a6.467,6.467,0,0,1-.819,2.645,1.981,1.981,0,0,1-1.723,1.03c-.884,0-1.384-.681-1.874-1.308a2.812,2.812,0,0,0-2.46-1.057c-.141-.02-.133-.136-.1-.223a1.5,1.5,0,0,1,1.322-.618,4.056,4.056,0,0,1,2.276.751c.92.563,1.275.34,1.747-.08a2.821,2.821,0,0,0,.726-1.733c.169-1.431.294-2.937,1.516-3.725a1.484,1.484,0,0,1,1.12-.078,2.574,2.574,0,0,1,1.369,1.825c.683,2.6.219,7.018-1.466,9.428,1.6-.194,3.172-2.016,3.512-3.675a13.281,13.281,0,0,0-.817-6.986,3.38,3.38,0,0,1-.19-1.742,1.84,1.84,0,0,1-.591.255.425.425,0,0,1-.423-.207.454.454,0,0,1,.2-.516,8.573,8.573,0,0,0,3.189-3.057,5.488,5.488,0,0,0,.5-2.14,2.005,2.005,0,0,0-.514-1.293c-.841-.636-2.692.178-3.21.4-1.007.488-2.564,1.452-2.893,1.655-.652.385-9.037.423-9.693,4.483a23.54,23.54,0,0,1,6-.676c.5-.012.178.245-.5.552-.454.216-3.246,1.477-3.916,1.946-.255.158-1.629-.531-2.036-1.655-.222.062-5.376,1.415-8.3,3.973-.57.6-.478,1.511-.232,1.469.454-.025,1.706-.937,2.052.091a4.362,4.362,0,0,1-.551,3.846c.238,1.024,3.053,3.836,3.736,3.39.5-.349.485-.723.418-1.337-.329-2.392,6.558-3.758,8.444.879A4.134,4.134,0,0,0,26,28.791c.23-.394.4-.385.329.429-.087,1.419-3.908,6.338-8.19,2.049-.306-.3-.7-.042-.054,1.361-.419,0-.733.107-.252,1.377.609,1.7,3.952,4.16,4.569,3.215.094-.116,2.994-2.029,5.741-1.059,1.83.672,7.605-.618,10.583-8.494.227-.9.651-1.333.542-.171a13.209,13.209,0,0,1-7.112,10.051,14.1,14.1,0,0,1,2.158,1.128c4.909-1.867,10.095-10.4,8.493-18.579-.684-3.51.426-.569.426-.569A18.751,18.751,0,0,1,25.482,44.206m6.11-30.7a5.3,5.3,0,0,1,1.35-.932c.425-.183,1.224-.465,1.512-.216.428.431.075,1.132-.186,1.51a3.9,3.9,0,0,1-1.184,1.289.278.278,0,0,1-.387-.078,8.846,8.846,0,0,0-1.114-1.257.205.205,0,0,1,.009-.316m10.521,26.9a.734.734,0,1,1,.734-.734.734.734,0,0,1-.734.734m4.9-4.583-1.943.1,1.023,1.651-.46.87-1.445-2.53-1.576-.834.4-.75,1.574.834,2.892-.223ZM47.7,34.33l-.68-.216.379-1.2-3.353-1.061.258-.818L47.66,32.1l.376-1.2.684.214Zm1.168-4.14L44.7,29.435l.153-.841,4.172.754Z"/>
  </g>
</svg>
