<svg xmlns="http://www.w3.org/2000/svg" viewBox="0 0 43.93 19.88"><defs><style>.cls-1{fill:#656567;}</style></defs><g id="레이어_2" data-name="레이어 2"><g id="Layer_1" data-name="Layer 1"><path class="cls-1" d="M6.36,4.42A4.57,4.57,0,0,0,3.44,5.77V.32H0V14.64H3.47V13.52A3.3,3.3,0,0,0,6.36,15a5.07,5.07,0,0,0,4.85-5.34S11,4.42,6.36,4.42ZM5.6,12A2.21,2.21,0,1,1,7.81,9.77,2.21,2.21,0,0,1,5.6,12Z"/><path class="cls-1" d="M12.31,0V3.31s1.57-.07,1.57,2.86v8.47h3.31V5.38S17.34,0,12.31,0Z"/><path class="cls-1" d="M25.3,4.46s-5.68,0-5.68,5.31c0,0-.19,5.23,5.68,5.23,0,0,5.81,0,5.81-5.23C31.11,9.77,31.3,4.46,25.3,4.46Zm0,7.52a2.21,2.21,0,1,1,2.21-2.21A2.21,2.21,0,0,1,25.3,12Z"/><path class="cls-1" d="M40.59,4.81v1a3.73,3.73,0,0,0-2.88-1.31s-4.87-.2-4.87,5.27c0,0-.05,5.1,4.73,5.1a3.92,3.92,0,0,0,3-1.31v.81a2.18,2.18,0,0,1-2.19,2.51h-.83v3h1.34a5,5,0,0,0,5-5.37V4.81ZM38.54,12a2.21,2.21,0,1,1,2.21-2.21A2.21,2.21,0,0,1,38.54,12Z"/></g></g></svg>