<svg xmlns="http://www.w3.org/2000/svg" viewBox="0 0 31.84 31.83"><defs><style>.cls-1{fill:#656567;}</style></defs><g id="레이어_2" data-name="레이어 2"><g id="Layer_1" data-name="Layer 1"><path class="cls-1" d="M22.65,0H9.19A9.18,9.18,0,0,0,0,9.19V22.65a9.18,9.18,0,0,0,9.19,9.18H22.65a9.19,9.19,0,0,0,9.19-9.18V9.19A9.19,9.19,0,0,0,22.65,0M28.9,22.88A6.1,6.1,0,0,1,22.8,29H9a6.1,6.1,0,0,1-6.1-6.1V9.11A6.1,6.1,0,0,1,9,3H22.8a6.1,6.1,0,0,1,6.1,6.1Z"/><path class="cls-1" d="M15.92,7.74A8.26,8.26,0,1,0,24.18,16a8.26,8.26,0,0,0-8.26-8.26m0,13.61A5.36,5.36,0,1,1,21.27,16a5.36,5.36,0,0,1-5.35,5.35"/><path class="cls-1" d="M24.45,5.5a1.93,1.93,0,1,0,1.93,1.92A1.92,1.92,0,0,0,24.45,5.5"/></g></g></svg>