<svg xmlns="http://www.w3.org/2000/svg" viewBox="0 0 30.88 21.9"><defs><style>.cls-1{fill:#656567;}</style></defs><g id="레이어_2" data-name="레이어 2"><g id="Layer_1" data-name="Layer 1"><path class="cls-1" d="M30.42,4c-.6-2.36-1.7-3.27-3.73-3.6C25.52.22,19.9,0,15.44,0S5.36.22,4.19.39C2.16.72,1.06,1.63.47,4A58.64,58.64,0,0,0,0,10.77v.36a58.81,58.81,0,0,0,.47,6.78c.59,2.36,1.69,3.27,3.72,3.59,1.17.18,6.8.4,11.26.4h0c4.47,0,10.09-.22,11.26-.4,2-.32,3.13-1.23,3.73-3.59a61.45,61.45,0,0,0,.46-6.78v-.36A61.27,61.27,0,0,0,30.42,4ZM11.74,14.91V7l7.4,3.87Z"/></g></g></svg>